<?xml version="1.0" encoding="UTF-8"?>
<svg id="Layer_1" data-name="Layer 1" xmlns="http://www.w3.org/2000/svg" xmlns:xlink="http://www.w3.org/1999/xlink" viewBox="0 0 400 100">
  <defs>
    <style>
      .cls-1 {
        fill: url(#linear-gradient-2);
      }

      .cls-2 {
        fill: #fff;
      }

      .cls-3 {
        fill: url(#linear-gradient-4);
      }

      .cls-4 {
        fill: url(#radial-gradient);
      }

      .cls-5 {
        fill: url(#linear-gradient-3);
      }

      .cls-6 {
        fill: url(#linear-gradient-5);
      }

      .cls-7 {
        fill: #231f20;
      }

      .cls-8 {
        fill: url(#linear-gradient);
      }
    </style>
    <radialGradient id="radial-gradient" cx="70.61" cy="47.13" fx="70.61" fy="47.13" r="11.79" gradientUnits="userSpaceOnUse">
      <stop offset="0" stop-color="#ee3a24"/>
      <stop offset="1" stop-color="#f5841f"/>
    </radialGradient>
    <linearGradient id="linear-gradient" x1="67.43" y1="29.7" x2="76.69" y2="29.7" gradientUnits="userSpaceOnUse">
      <stop offset="0" stop-color="#ee3a24"/>
      <stop offset="1" stop-color="#f5841f"/>
    </linearGradient>
    <linearGradient id="linear-gradient-2" x1="15.52" y1="57.69" x2="35.89" y2="57.69" xlink:href="#linear-gradient"/>
    <linearGradient id="linear-gradient-3" x1="264.83" y1="50.52" x2="301.07" y2="50.52" xlink:href="#linear-gradient"/>
    <linearGradient id="linear-gradient-4" x1="306.74" y1="50.52" x2="342.57" y2="50.52" xlink:href="#linear-gradient"/>
    <linearGradient id="linear-gradient-5" x1="348.24" y1="50.52" x2="384.48" y2="50.52" xlink:href="#linear-gradient"/>
  </defs>
  <g>
    <circle class="cls-7" cx="54.98" cy="73.35" r="3.95"/>
    <circle class="cls-7" cx="74.74" cy="73.35" r="3.95"/>
  </g>
  <path class="cls-7" d="M59.95,68.71h-12.86c-.76-.68-4.84-8.34-5.37-9.19-2.43-3.92-4.55-8.56-7.15-12.3-2.35-3.38-5.78-5.49-10.05-4.81-1.29.2-2.16.93-3.33,1.37l12.23-21.07,26.53,46.01Z"/>
  <path class="cls-7" d="M43.08,33.73h9.07c.54.48.85,1.13,1.22,1.72,1.71,2.76,3.21,6.04,5.04,8.67,1.66,2.38,4.07,3.87,7.09,3.39.91-.14,1.52-.66,2.35-.97l-8.62,15.18-16.15-28.01Z"/>
  <path class="cls-4" d="M65.46,43.14c-1.81-.17-3.45-1.72-3.61-3.55-.28-3.13,2.38-4.22,4.05-6.35.54-.41.38.61.41.88.14,1.43,1.8,2.5,3.14,2.61,3.12.25,3.43-.27,6.54,0,3.59.31,4.92,4.58,2.41,7.06l-9.57,17.34h-7.3l10.21-17.98h-6.28Z"/>
  <path class="cls-8" d="M73.42,26.34c1.05,1.08,2.12,2.15,3.19,3.21l.08.23-4.64,4.64-4.63-4.78,4.63-4.65c.2,0,1.16,1.14,1.37,1.35Z"/>
  <g>
    <path class="cls-1" d="M26.88,67.82c-.98.13-1.99.08-2.96-.09-3.82-.65-7.14-3.65-8.09-7.52-1.81-7.36,4.56-14.01,11.98-12.51,6.25,1.27,9.77,8.11,7.28,13.99-.1.24-.54,1.18-.72,1.25-.06.03-.15.01-.21.01.13.25-.1.54-.25.77-.12.19-.87,1.13-1.03,1.13-.17,0-.19-.21-.29-.29-.04-.03-.12,0-.17-.04-1.28-.87-.84-.87-.58-2.15.24-1.18.32-2.37.09-3.55-2.58,2.37-5.97,3.79-9.44,4.2.64.87,1.56,1.65,2.51,2.17.44.25,1.24.48,1.58.72.09.06.3.35.3.42v1.48ZM25.3,48.87c-.16,0-.33-.01-.49,0-1.31.1-2.31.44-3.45,1.08s-2.12,1.54-2.88,2.59l.78.07.04.19c.12-.32.23-.11.46-.13.71-.05,1.48-.18,2.15-.41,1.54-.54,2.99-1.76,3.39-3.39ZM29.24,52.14c.15-.34,1.03-1.84.89-2.1-.35-.42-3.17-1.34-3.44-1.11l-.6,1.7c1.15.26,2.17.88,3.15,1.51ZM32.74,52.31c-.29-.38-.68-.85-1.04-1.15-.06-.05-.37-.32-.43-.26-.18.75-.62,1.4-.99,2.07.84.97,1.62,1.96,2.2,3.11.13,0,1.15-1.93,1.15-2.2,0-.32-.68-1.29-.89-1.57ZM25.9,55.22c.13.09,1.22-.76,1.41-.92.39-.33.73-.71,1.08-1.08-.94-.73-2.06-1.24-3.23-1.47l-.9.71v.09c.61.85,1.22,1.71,1.64,2.66ZM24.71,55.94c.06-.09-.19-.51-.25-.63-.27-.51-.7-1.18-1.05-1.64-.06-.08-.24-.35-.28-.38-.18-.11-.44.1-.62.17-.4.14-.81.26-1.22.37-.43.98-.72,2.03-.78,3.11,1.45,0,2.86-.46,4.19-.99ZM19.8,53.98l-2.03-.17c-.49.89-.73,1.91-.85,2.92l2.23.23c.09-.61.15-1.21.29-1.81.09-.4.22-.8.36-1.18ZM29.41,54.12c-.86.91-1.8,1.71-2.86,2.4l1.27,3.57c.84-.47,1.68-.96,2.43-1.57.19-.15,1.17-1.02,1.21-1.16.07-.27-.66-1.54-.84-1.82-.14-.21-1.05-1.43-1.21-1.4ZM33.31,62.31c1.13-2.03,1.55-4.33,1.05-6.62l-1.3,1.95c.27,1.19.38,2.37.32,3.6-.01.28-.1.58-.13.86,0,.07-.06.24.06.22ZM26.55,60.67c-.32-1.21-.65-2.42-1.22-3.54-1.52.67-3.15,1.1-4.82,1.18.17,1.21.49,2.41,1.09,3.48,1.7-.09,3.34-.57,4.94-1.12ZM19.27,58.31c-.82.05-1.61-.15-2.43-.2.15,1.28.37,2.63,1.09,3.73l2.19.08c-.41-1.14-.97-2.37-.85-3.61ZM24.39,66.44c-.59-.43-1.22-.8-1.77-1.28-.64-.56-1.24-1.26-1.7-1.97l-2.1.03.59.81c.42.23.76.6,1.16.88,1.12.78,2.46,1.36,3.82,1.52Z"/>
    <path class="cls-7" d="M31.29,64.92c.07.06.57.27.77.45.95.84-.86.72-1.29.92-.15.07-.14.19-.1.33.14.45,1.05,1.77,1,2.08-.03.19-.88.73-1.1.48-.36-.53-.65-1.5-1.01-1.97-.15-.2-.23-.17-.42-.04-.34.25-1.32,1.58-1.41.5-.14-1.54.11-3.29,0-4.86.09-.47.36-.28.64-.11,1.01.62,2.03,1.48,2.92,2.23Z"/>
    <path class="cls-2" d="M26.55,60.67c-1.6.55-3.24,1.03-4.94,1.12-.61-1.06-.92-2.27-1.09-3.48,1.67-.08,3.3-.51,4.82-1.18.57,1.12.9,2.33,1.22,3.54Z"/>
    <path class="cls-2" d="M29.41,54.12c.16-.03,1.07,1.19,1.21,1.4.19.29.91,1.56.84,1.82-.04.14-1.02,1.01-1.21,1.16-.75.61-1.59,1.1-2.43,1.57l-1.27-3.57c1.05-.68,1.99-1.49,2.86-2.4Z"/>
    <path class="cls-2" d="M25.3,48.87c-.4,1.63-1.85,2.85-3.39,3.39-.67.24-1.44.37-2.15.41-.23.02-.33-.19-.46.13l-.04-.19-.78-.07c.76-1.05,1.75-1.95,2.88-2.59s2.14-.98,3.45-1.08c.16-.01.33,0,.49,0Z"/>
    <path class="cls-2" d="M24.71,55.94c-1.33.53-2.74.98-4.19.99.07-1.08.35-2.13.78-3.11.41-.11.82-.23,1.22-.37.19-.06.44-.28.62-.17.04.03.22.3.28.38.35.47.77,1.13,1.05,1.64.06.12.31.54.25.63Z"/>
    <path class="cls-2" d="M32.74,52.31c.21.28.9,1.25.89,1.57,0,.27-1.02,2.19-1.15,2.2-.58-1.15-1.36-2.14-2.2-3.11.36-.67.8-1.32.99-2.07.06-.06.36.21.43.26.36.3.76.78,1.04,1.15Z"/>
    <path class="cls-2" d="M19.27,58.31c-.11,1.24.44,2.46.85,3.61l-2.19-.08c-.72-1.1-.94-2.44-1.09-3.73.81.05,1.61.25,2.43.2Z"/>
    <path class="cls-2" d="M25.9,55.22c-.42-.96-1.03-1.81-1.64-2.66v-.09s.89-.71.89-.71c1.17.23,2.3.73,3.23,1.47-.35.37-.69.75-1.08,1.08-.18.15-1.27,1.01-1.41.92Z"/>
    <path class="cls-2" d="M29.24,52.14c-.97-.63-2-1.25-3.15-1.51l.6-1.7c.27-.23,3.09.69,3.44,1.11.13.26-.74,1.76-.89,2.1Z"/>
    <path class="cls-2" d="M19.8,53.98c-.14.38-.27.78-.36,1.18-.14.6-.2,1.2-.29,1.81l-2.23-.23c.12-1.01.36-2.03.85-2.92l2.03.17Z"/>
    <path class="cls-2" d="M33.31,62.31c-.12.01-.06-.15-.06-.22.03-.28.11-.58.13-.86.06-1.22-.04-2.41-.32-3.6l1.3-1.95c.5,2.3.08,4.59-1.05,6.62Z"/>
    <path class="cls-2" d="M24.39,66.44c-1.37-.16-2.7-.74-3.82-1.52-.4-.28-.74-.65-1.16-.88l-.59-.81,2.1-.03c.47.71,1.06,1.41,1.7,1.97.55.48,1.18.85,1.77,1.28Z"/>
  </g>
  <rect class="cls-7" x="51.5" y="63.94" width="30.74" height="4.77"/>
  <g>
    <path class="cls-7" d="M98.51,59.56h18.38v9.35h-30.57v-36.77h29.89v9.35h-17.7v18.07ZM97.67,45.79h16.39v8.93h-16.39v-8.93Z"/>
    <path class="cls-7" d="M140.69,69.75c-2.94,0-5.66-.46-8.17-1.39-2.5-.93-4.68-2.25-6.51-3.97-1.84-1.71-3.27-3.75-4.28-6.09-1.02-2.35-1.52-4.94-1.52-7.77s.51-5.43,1.52-7.77c1.02-2.35,2.44-4.38,4.28-6.09,1.84-1.72,4.01-3.04,6.51-3.97,2.5-.93,5.23-1.39,8.17-1.39,3.61,0,6.8.63,9.59,1.89s5.09,3.08,6.91,5.46l-7.83,6.99c-1.09-1.37-2.29-2.42-3.6-3.18-1.31-.75-2.79-1.13-4.44-1.13-1.3,0-2.47.21-3.52.63s-1.95,1.03-2.7,1.84c-.75.81-1.34,1.78-1.76,2.92-.42,1.14-.63,2.41-.63,3.81s.21,2.67.63,3.81c.42,1.14,1.01,2.11,1.76,2.92.75.81,1.65,1.42,2.7,1.84s2.22.63,3.52.63c1.65,0,3.13-.38,4.44-1.13,1.31-.75,2.51-1.81,3.6-3.18l7.83,6.99c-1.82,2.35-4.12,4.16-6.91,5.44-2.78,1.28-5.98,1.92-9.59,1.92Z"/>
    <path class="cls-7" d="M179.3,69.75c-3.01,0-5.79-.47-8.33-1.42-2.54-.95-4.74-2.29-6.59-4.02-1.86-1.73-3.3-3.77-4.33-6.12-1.03-2.35-1.55-4.9-1.55-7.67s.52-5.37,1.55-7.7c1.03-2.33,2.48-4.36,4.33-6.09,1.86-1.73,4.05-3.07,6.59-4.02,2.54-.95,5.3-1.42,8.27-1.42s5.78.47,8.3,1.42,4.71,2.29,6.57,4.02c1.86,1.73,3.3,3.76,4.33,6.09,1.03,2.33,1.55,4.89,1.55,7.7s-.52,5.32-1.55,7.67c-1.03,2.35-2.48,4.39-4.33,6.12-1.86,1.73-4.04,3.07-6.57,4.02s-5.27,1.42-8.25,1.42ZM179.25,59.71c1.16,0,2.23-.21,3.23-.63s1.87-1.02,2.63-1.81,1.34-1.75,1.76-2.89c.42-1.14.63-2.42.63-3.86s-.21-2.72-.63-3.86c-.42-1.14-1.01-2.1-1.76-2.89s-1.63-1.39-2.63-1.81-2.07-.63-3.23-.63-2.23.21-3.23.63-1.87,1.02-2.63,1.81c-.75.79-1.34,1.75-1.76,2.89-.42,1.14-.63,2.42-.63,3.86s.21,2.72.63,3.86c.42,1.14,1.01,2.1,1.76,2.89.75.79,1.63,1.39,2.63,1.81s2.07.63,3.23.63Z"/>
    <path class="cls-7" d="M204.51,68.91v-36.77h10.19l14.71,24.01h-5.36l14.29-24.01h10.19l.11,36.77h-11.29l-.11-19.75h1.79l-9.77,16.44h-5.46l-10.19-16.44h2.21v19.75h-11.29Z"/>
  </g>
  <g>
    <path class="cls-5" d="M277.22,68.91h-12.4v-36.77h12.4v36.77ZM289.51,55.35h-13.13v-10.19h13.13v10.19ZM288.67,32.14h12.4v36.77h-12.4v-36.77Z"/>
    <path class="cls-3" d="M324.65,69.33c-5.64,0-10.03-1.52-13.18-4.57-3.15-3.05-4.73-7.32-4.73-12.82v-20.22h12.4v19.86c0,2.8.51,4.79,1.52,5.96,1.02,1.17,2.38,1.76,4.1,1.76s3.13-.59,4.12-1.76c1-1.17,1.5-3.16,1.5-5.96v-19.86h12.19v20.22c0,5.5-1.58,9.77-4.73,12.82-3.15,3.05-7.55,4.57-13.18,4.57Z"/>
    <path class="cls-6" d="M348.24,68.91v-36.77h19.65c5.08,0,8.82.9,11.24,2.71,2.42,1.8,3.62,4.11,3.62,6.91,0,1.86-.52,3.51-1.55,4.96-1.03,1.45-2.53,2.6-4.49,3.44-1.96.84-4.38,1.26-7.25,1.26l1.05-2.84c2.87,0,5.35.4,7.43,1.21s3.69,1.97,4.83,3.49c1.14,1.52,1.71,3.35,1.71,5.49,0,3.19-1.32,5.67-3.97,7.46-2.64,1.79-6.51,2.68-11.58,2.68h-20.7ZM360.43,60.24h7.46c1.37,0,2.39-.24,3.07-.74.68-.49,1.02-1.21,1.02-2.15s-.34-1.66-1.02-2.15c-.68-.49-1.71-.74-3.07-.74h-8.3v-8.19h6.62c1.4,0,2.42-.24,3.07-.71.65-.47.97-1.15.97-2.02s-.32-1.59-.97-2.05c-.65-.45-1.67-.68-3.07-.68h-5.78v19.43Z"/>
  </g>
</svg>